# xmcd
#
# Track frame offsets:
#	150
#	19384
#	37331
#	59735
#	78551
#	96055
#	111492
#	133431
#	152124
#	171358
#	189305
#	211709
#	230525
#	248029
#	263466
#	285405
#	315498
#
# Disc length: 4219 seconds
#
# Revision: 0
# Processed by: cddbd v1.5.1PL0 Copyright (c) Steve Scherf et al.
# Submitted via: audiograbber 1.83.01
#
DISCID=f5107911
DTITLE=Country Picks - Vol. 192 - SC3424-
DYEAR=2005
DGENRE=Karaoke
TTITLE0=Larsen, Blaine - How Do You Get That Lonely
TTITLE1=Worley, Darryl - Awful Beautiful Life
TTITLE2=Roberts, Julie - Chance, The
TTITLE3=Twain, Shania - Don't!
TTITLE4=Keith, Toby and Krystal - Mockingbird
TTITLE5=Adkins, Trace - Rough And Ready
TTITLE6=Evans, Sara - Tonight
TTITLE7=Big and Rich - Kick My A$$
TTITLE8=w/Vocals - Larsen, Blaine - How Do You Get That Lonely
TTITLE9=w/Vocals - Worley, Darryl - Awful Beautiful Life
TTITLE10=w/Vocals - Roberts, Julie - Chance, The
TTITLE11=w/Vocals - Twain, Shania - Don't!
TTITLE12=w/Vocals - Keith, Toby and Krystal - Mockingbird
TTITLE13=w/Vocals - Adkins, Trace - Rough And Ready
TTITLE14=w/Vocals - Evans, Sara - Tonight
TTITLE15=w/Vocals - Big and Rich - Kick My A$$
TTITLE16=Data Track
EXTD=
EXTT0=
EXTT1=
EXTT2=
EXTT3=
EXTT4=
EXTT5=
EXTT6=
EXTT7=
EXTT8=
EXTT9=
EXTT10=
EXTT11=
EXTT12=
EXTT13=
EXTT14=
EXTT15=
EXTT16=
PLAYORDER=
